# Blender 3.5.0
# www.blender.org
mtllib untitled.mtl
o Cube
v 1.315698 0.735467 -1.251804
v 1.766072 0.045546 -1.680307
v 1.315698 0.735467 1.251804
v 1.766072 0.045546 1.680307
v -1.315698 0.735467 -1.251804
v -1.766072 0.045546 -1.680307
v -1.315698 0.735467 1.251804
v -1.766072 0.045546 1.680307
v 1.766072 0.735467 1.680307
v -1.766072 0.735467 1.680307
v 1.766072 0.735467 -1.680307
v -1.766072 0.735467 -1.680307
v 0.988187 1.179851 0.940198
v -0.988187 1.179851 0.940198
v 0.988187 1.179851 -0.940198
v -0.988187 1.179851 -0.940198
v 1.315698 1.179851 1.251804
v -1.315698 1.179851 1.251804
v 1.315698 1.179851 -1.251804
v -1.315698 1.179851 -1.251804
v 0.634079 1.681737 0.603286
v -0.634079 1.681737 0.603286
v 0.634079 1.681737 -0.603286
v -0.634079 1.681737 -0.603286
v 0.988187 1.681737 0.940198
v -0.988187 1.681737 0.940198
v 0.988187 1.681737 -0.940198
v -0.988187 1.681737 -0.940198
v 0.634079 6.813269 0.603286
v -1.764935 8.086058 -1.679225
v 1.764935 8.086058 -1.679225
v -0.634079 6.813269 0.603286
v 0.634079 6.813269 -0.603286
v -1.764935 8.086058 1.679225
v 1.764935 8.086058 1.679225
v -0.634079 6.813269 -0.603286
vn -0.0000 -0.0000 -1.0000
vn -0.0000 -0.0000 1.0000
vn -1.0000 -0.0000 -0.0000
vn -0.0000 -1.0000 -0.0000
vn 1.0000 -0.0000 -0.0000
vn -0.0000 1.0000 -0.0000
vn -0.0000 -0.8734 -0.4870
vn -0.4687 -0.8834 -0.0000
vn 0.4687 -0.8834 -0.0000
vn -0.0000 -0.8734 0.4870
vt 0.798741 0.369958
vt 0.641694 0.151961
vt 0.798857 0.100406
vt 0.798857 0.000000
vt 0.618079 0.643619
vt 0.798418 0.539017
vt 0.641694 0.252367
vt 0.798857 0.200812
vt 0.798857 0.000000
vt 0.798418 0.539017
vt 0.798857 0.134776
vt 0.618079 0.508843
vt 0.798741 0.269552
vt 0.775889 0.151961
vt 0.798418 0.605053
vt 0.438386 0.508843
vt 0.618726 0.000000
vt 0.798418 0.673793
vt 0.775889 0.252367
vt 0.798418 0.504647
vt 0.798857 0.100406
vt 0.798418 0.404241
vt 0.438386 0.643619
vt 0.618726 0.134776
vt 0.618726 0.539017
vt 0.438386 0.508843
vt 0.618726 0.269552
vt 0.618726 0.404241
vt 0.258694 0.643619
vt 0.798857 0.269552
vt 0.438386 0.643619
vt 0.618726 0.539017
vt 0.618726 0.134776
vt 0.258694 0.508843
vt 0.618726 0.673793
vt 0.798857 0.134776
vt 0.815121 0.492150
vt 0.359485 0.643619
vt 0.915911 0.492150
vt 0.561067 0.643619
vt 0.258694 0.643619
vt 0.460276 0.643619
vt 0.815121 0.416738
vt 0.798418 0.605053
vt 0.915911 0.416738
vt 0.460276 0.643619
vt 0.899209 0.605053
vt 0.914599 0.200812
vt 0.914599 0.000000
vt 0.798418 0.504647
vt 0.914160 0.504647
vt 0.914599 0.100406
vt 0.932614 0.504647
vt 0.914483 0.369958
vt 0.914599 0.100406
vt 0.798418 0.404241
vt 0.914483 0.269552
vt 0.914160 0.605053
vt 0.932614 0.404241
vt 0.917268 0.666954
vt 0.129347 0.000000
vt 0.258694 0.000000
vt 0.981941 0.666954
vt 0.129347 0.000000
vt 0.194020 0.000000
vt 0.917268 0.618565
vt 0.194020 0.000000
vt 0.000000 0.000000
vt 0.981941 0.618565
vt 0.064673 0.000000
vt 0.359485 0.741423
vt 0.899209 0.680466
vt 0.561067 0.741423
vt 0.258694 0.741423
vt 1.000000 0.680466
vt 0.460276 0.741423
vt 0.798418 0.702858
vt 0.899209 0.605053
vt 0.460276 0.741423
vt 0.899209 0.702858
vt 1.000000 0.605053
vt 0.129347 1.000000
vt 0.496381 0.000000
vt 0.381038 0.000000
vt 0.258694 1.000000
vt 0.618726 0.269552
vt 0.618726 0.254421
vt 0.258694 0.254421
vt 0.618726 0.404241
vt 0.438710 0.254421
vt 0.618726 0.508843
vt 0.129347 1.000000
vt 0.561054 0.000000
vt 0.496381 0.254421
vt 0.194020 1.000000
vt 0.194020 1.000000
vt 0.000000 1.000000
vt 0.316365 0.000000
vt 0.381038 0.254421
vt 0.798741 0.269552
vt 0.438710 0.254421
vt 0.258694 0.508843
vt 0.798741 0.404241
vt 0.438710 0.508843
vt 0.064673 1.000000
vt 0.561054 0.254421
vt 0.316365 0.254421
s 0
usemtl Material
f 1/1/1 5/13/1 20/57/1 19/54/1
f 8/23/3 10/29/3 12/34/3 6/16/3
f 2/5/5 11/31/5 9/26/5 4/12/5
f 6/18/1 12/35/1 11/32/1 2/6/1
f 13/38/5 15/42/5 27/76/5 25/71/5
f 3/8/5 1/3/5 19/55/5 17/48/5
f 5/15/3 7/20/3 18/51/3 20/58/3
f 16/46/3 14/40/3 26/73/3 28/79/3
f 15/44/1 16/47/1 28/80/1 27/77/1
f 21/61/5 23/67/5 33/96/5 29/82/5
f 24/70/3 22/64/3 32/92/3 36/105/3
f 23/68/1 24/70/1 36/105/1 33/97/1
f 34/100/6 35/103/6 31/89/6 30/86/6
f 34/101/8 30/88/8 29/84/8 33/98/8
usemtl Marmol
f 4/10/2 9/25/2 10/28/2 8/22/2
f 6/17/4 2/4/4 4/11/4 8/24/4
f 3/7/6 7/19/6 10/30/6 9/27/6
f 1/2/6 3/7/6 9/27/6 11/33/6
f 7/19/6 5/14/6 12/36/6 10/30/6
f 5/14/6 1/2/6 11/33/6 12/36/6
f 7/21/2 3/9/2 17/49/2 18/52/2
f 13/37/6 14/39/6 18/53/6 17/50/6
f 15/43/6 13/37/6 17/50/6 19/56/6
f 14/39/6 16/45/6 20/59/6 18/53/6
f 16/45/6 15/43/6 19/56/6 20/59/6
f 14/41/2 13/38/2 25/71/2 26/74/2
f 21/60/6 22/63/6 26/75/6 25/72/6
f 23/66/6 21/60/6 25/72/6 27/78/6
f 22/63/6 24/69/6 28/81/6 26/75/6
f 24/69/6 23/66/6 27/78/6 28/81/6
f 30/87/7 31/90/7 32/93/7 29/83/7
f 31/91/9 35/104/9 36/106/9 32/94/9
f 35/104/10 34/102/10 33/99/10 36/107/10
f 22/65/2 21/62/2 29/85/2 32/95/2
